<?xml version="1.0" encoding="UTF-8" standalone="no"?>
<!-- Created with Inkscape (http://www.inkscape.org/) -->

<svg
   xmlns:dc="http://purl.org/dc/elements/1.1/"
   xmlns:cc="http://creativecommons.org/ns#"
   xmlns:rdf="http://www.w3.org/1999/02/22-rdf-syntax-ns#"
   xmlns:svg="http://www.w3.org/2000/svg"
   xmlns="http://www.w3.org/2000/svg"
   xmlns:sodipodi="http://sodipodi.sourceforge.net/DTD/sodipodi-0.dtd"
   xmlns:inkscape="http://www.inkscape.org/namespaces/inkscape"
   width="225"
   height="225"
   id="svg3203"
   version="1.1"
   inkscape:version="0.91 r13725"
   sodipodi:docname="Installer.svg">
  <defs
     id="defs3205">
    <clipPath
       clipPathUnits="userSpaceOnUse"
       id="clipPath16">
      <path
         d="M 0,800 1200,800 1200,0 0,0 0,800 Z"
         id="path18"
         inkscape:connector-curvature="0" />
    </clipPath>
    <pattern
       y="0"
       x="0"
       height="6"
       width="6"
       patternUnits="userSpaceOnUse"
       id="WMFhbasepattern" />
  </defs>
  <sodipodi:namedview
     id="base"
     pagecolor="#cecece"
     bordercolor="#666666"
     borderopacity="1.0"
     inkscape:pageopacity="0"
     inkscape:pageshadow="2"
     inkscape:zoom="0.98994949"
     inkscape:cx="-295.67276"
     inkscape:cy="-162.14022"
     inkscape:document-units="px"
     inkscape:current-layer="layer1"
     showgrid="false"
     fit-margin-top="0"
     fit-margin-left="0"
     fit-margin-right="0"
     fit-margin-bottom="0"
     inkscape:window-width="1920"
     inkscape:window-height="1017"
     inkscape:window-x="-8"
     inkscape:window-y="-8"
     inkscape:window-maximized="1" />
  <metadata
     id="metadata3208">
    <rdf:RDF>
      <cc:Work
         rdf:about="">
        <dc:format>image/svg+xml</dc:format>
        <dc:type
           rdf:resource="http://purl.org/dc/dcmitype/StillImage" />
        <dc:title></dc:title>
      </cc:Work>
    </rdf:RDF>
  </metadata>
  <g
     inkscape:label="Layer 1"
     inkscape:groupmode="layer"
     id="layer1"
     transform="translate(-265.90624,-405.41531)">
    <g
       id="g4158"
       transform="matrix(1.3424657,0,0,1.3424657,-119.59765,-164.30812)">
      <rect
         ry="3.7244897"
         rx="3.7244897"
         y="434.44571"
         x="297.22095"
         height="147.48227"
         width="147.48227"
         id="rect4156"
         style="opacity:1;fill:#ffffff;fill-opacity:1;stroke:none;stroke-width:1.73899996;stroke-linecap:round;stroke-linejoin:round;stroke-miterlimit:4;stroke-dasharray:none;stroke-dashoffset:0;stroke-opacity:1" />
      <g
         transform="matrix(3.5433071,0,0,3.5433071,330.49334,446.78085)"
         id="g4151">
        <path
           style="fill:#ed1c24;fill-opacity:1;fill-rule:nonzero;stroke:none"
           d="m 10.847917,34.660276 0,-23.547776 0.881944,0 0,23.547776 -0.881944,0 z"
           id="path8097"
           inkscape:connector-curvature="0" />
        <path
           style="fill:#ed1c24;fill-opacity:1;fill-rule:nonzero;stroke:none"
           d="m 13.670139,6.5263889 0,0 0,0.4409722 L 13.49375,7.4083333 13.317361,7.7611111 13.052778,8.1138889 12.7,8.3784722 12.347222,8.6430556 11.90625,8.73125 l -0.529167,0.088194 0,0 L 10.936111,8.73125 10.495139,8.6430556 10.142361,8.3784722 9.7895833,8.1138889 9.525,7.7611111 9.3486111,7.4083333 9.1722222,6.9673611 9.0840278,6.5263889 l 0,0 L 9.1722222,6.0854167 9.3486111,5.6444444 9.525,5.2034722 9.7895833,4.9388889 10.142361,4.5861111 l 0.352778,-0.1763889 0.440972,-0.1763889 0.440972,0 0,0 0.529167,0 0.440972,0.1763889 0.352778,0.1763889 0.352778,0.3527778 0.264583,0.2645833 0.176389,0.4409722 0.176389,0.4409723 0,0.4409722 0,0 z"
           id="path8099"
           inkscape:connector-curvature="0" />
        <path
           style="fill:#ed1c24;fill-opacity:1;fill-rule:nonzero;stroke:none"
           d="m 22.842361,8.8194444 -0.881944,0 0,0 -0.08819,-0.79375 -0.176389,-0.79375 L 21.43125,6.4381944 21.078472,5.7326389 20.6375,5.0270833 20.108333,4.4097222 19.490972,3.7923611 18.873611,3.2631944 18.079861,2.7340278 17.286111,2.2930556 16.404167,1.8520833 15.522222,1.4993056 14.552083,1.2347222 13.49375,1.0583333 12.523611,0.9701389 11.377083,0.8819445 l 0,0 L 10.31875,0.97013889 9.3486111,1.0583333 8.2902778,1.2347222 7.3201389,1.4993056 6.4381944,1.8520833 5.55625,2.2930556 4.7625,2.7340278 3.96875,3.2631944 3.3513889,3.7923611 2.7340278,4.4097222 2.2048611,5.0270833 1.7638889,5.7326389 1.4111111,6.4381944 l -0.2645833,0.79375 -0.17638891,0.79375 -0.0881944,0.79375 -0.88194444,0 0,0 L 0.08819444,7.9375 0.26458333,7.0555556 0.52916667,6.1736111 0.97013889,5.3798611 1.4111111,4.6743056 1.9402778,3.8805556 2.6458333,3.2631944 3.3513889,2.6458333 4.1451389,2.0284722 5.0270833,1.4993056 5.9972222,1.0583333 6.9673611,0.70555556 8.0256944,0.44097222 9.0840278,0.17638889 10.230556,0.08819444 11.377083,0 l 0,0 1.234723,0.08819444 1.058333,0.08819445 1.146528,0.26458333 1.058333,0.26458334 0.970139,0.35277774 0.970139,0.4409723 0.881944,0.5291666 0.79375,0.6173611 0.705556,0.6173611 0.617361,0.6173612 0.617361,0.79375 0.440972,0.7055555 0.440972,0.79375 0.264584,0.8819445 0.176389,0.8819444 0.08819,0.8819444 0,0 z"
           id="path8101"
           inkscape:connector-curvature="0" />
      </g>
    </g>
    <path
       inkscape:connector-curvature="0"
       d="m 400.28374,621.32336 q 0,-1.26969 -0.92784,-2.19752 -0.92785,-0.92783 -2.19752,-0.92783 -1.26968,0 -2.19752,0.92783 -0.92784,0.92783 -0.92784,2.19752 0,1.26967 0.92784,2.1975 0.92785,0.92785 2.19752,0.92785 1.26967,0 2.19752,-0.92785 0.92784,-0.92783 0.92784,-2.1975 z m 12.50143,0 q 0,-1.26969 -0.92785,-2.19752 -0.92784,-0.92783 -2.19751,-0.92783 -1.26968,0 -2.19752,0.92783 -0.92784,0.92783 -0.92784,2.19752 0,1.26967 0.92784,2.1975 0.92784,0.92785 2.19752,0.92785 1.26967,0 2.19751,-0.92785 0.92785,-0.92783 0.92785,-2.1975 z m 6.25071,-10.93877 0,15.6268 q 0,1.95336 -1.36735,3.32068 -1.36734,1.36735 -3.32069,1.36735 l -71.88321,0 q -1.95335,0 -3.32069,-1.36735 -1.36735,-1.36732 -1.36735,-3.32068 l 0,-15.6268 q 0,-1.95335 1.36735,-3.32068 1.36735,-1.36735 3.32069,-1.36735 l 22.70768,0 6.59254,6.64139 q 2.83236,2.73468 6.64138,2.73468 3.80904,0 6.64139,-2.73468 l 6.64138,-6.64139 22.65884,0 q 1.95335,0 3.32069,1.36735 1.36735,1.36733 1.36735,3.32068 z m -15.87095,-27.78637 q 0.83017,2.00219 -0.68368,3.41836 l -21.8775,21.87751 q -0.879,0.92783 -2.19752,0.92783 -1.31851,0 -2.19751,-0.92783 l -21.8775,-21.87751 q -1.51385,-1.41617 -0.68368,-3.41836 0.83018,-1.90452 2.88119,-1.90452 l 12.50144,0 0,-21.8775 q 0,-1.26967 0.92784,-2.19752 0.92784,-0.92783 2.19752,-0.92783 l 12.50142,0 q 1.26968,0 2.19753,0.92783 0.92784,0.92785 0.92784,2.19752 l 0,21.8775 12.50143,0 q 2.05101,0 2.88118,1.90452 z"
       id="path4" />
  </g>
</svg>
